<svg width="64" height="64" viewBox="0 0 64 64" fill="none" xmlns="http://www.w3.org/2000/svg">
<g clip-path="url(#clip0)">
<path d="M34 30H64V2C64 1.46957 63.7893 0.960859 63.4142 0.585786C63.0391 0.210714 62.5304 0 62 0L34 0V30Z" fill="#4CAF50"/>
<path d="M30 30V0H2C1.46957 0 0.960859 0.210714 0.585786 0.585786C0.210714 0.960859 0 1.46957 0 2L0 30H30Z" fill="#F44336"/>
<path d="M30 34H0V62C0 62.5304 0.210714 63.0391 0.585786 63.4142C0.960859 63.7893 1.46957 64 2 64H30V34Z" fill="#2196F3"/>
<path d="M34 34V64H62C62.5304 64 63.0391 63.7893 63.4142 63.4142C63.7893 63.0391 64 62.5304 64 62V34H34Z" fill="#FFC107"/>
</g>
<defs>
<clipPath id="clip0">
<rect width="64" height="64" fill="white"/>
</clipPath>
</defs>
</svg>
