<svg width="64" height="52" viewBox="0 0 64 52" fill="none" xmlns="http://www.w3.org/2000/svg">
<g clip-path="url(#clip0)">
<path d="M64 6.133C61.5925 7.17925 59.0464 7.87463 56.4399 8.19772C59.1868 6.57387 61.2404 4.00252 62.2117 0.970891C59.6404 2.49031 56.8273 3.56043 53.8939 4.13497C52.0949 2.21989 49.7592 0.888373 47.1906 0.313538C44.6219 -0.261298 41.9391 -0.0528557 39.4909 0.911761C37.0427 1.87638 34.9424 3.55254 33.4631 5.72233C31.9838 7.89212 31.1939 10.4551 31.1962 13.0782C31.1861 14.0791 31.2881 15.0781 31.5003 16.0565C26.2806 15.8015 21.1737 14.4518 16.5134 12.0956C11.8531 9.73936 7.74437 6.42971 4.45585 2.38298C2.7675 5.2587 2.2443 8.66799 2.99303 11.915C3.74176 15.162 5.70598 18.0019 8.48477 19.855C6.40876 19.7991 4.37665 19.2469 2.55966 18.2448V18.3873C2.56308 21.4061 3.61024 24.3316 5.52488 26.6713C7.43952 29.011 10.1047 30.6221 13.0719 31.2333C11.9494 31.5281 10.7925 31.6729 9.63171 31.6639C8.79818 31.6785 7.9655 31.6036 7.14808 31.4405C7.99607 34.035 9.63037 36.3038 11.826 37.9346C14.0216 39.5654 16.6706 40.478 19.4083 40.5469C14.7641 44.1656 9.0364 46.1287 3.14061 46.1227C2.09095 46.1296 1.04194 46.0695 0 45.9427C5.99948 49.7946 12.9905 51.8322 20.1277 51.8092C44.2713 51.8092 57.4719 31.8827 57.4719 14.6101C57.4719 14.0319 57.4517 13.4744 57.4238 12.9202C60.0117 11.0749 62.2403 8.77491 64 6.133Z" fill="#03A9F4"/>
</g>
<defs>
<clipPath id="clip0">
<rect width="64" height="51.8095" fill="white"/>
</clipPath>
</defs>
</svg>
